<svg id="图层_1" data-name="图层 1" xmlns="http://www.w3.org/2000/svg" viewBox="0 0 40 40"><title>icon</title><path d="M30.28,40H9.71a7.39,7.39,0,0,1-7.48-7.26V7.26A7.38,7.38,0,0,1,9.71,0h1.61a.9.9,0,0,1,0,1.79H9.71A5.59,5.59,0,0,0,4,7.26V32.74a5.59,5.59,0,0,0,5.7,5.47H30.29A5.59,5.59,0,0,0,36,32.74V7.26a5.59,5.59,0,0,0-5.7-5.47H28.67a.9.9,0,0,1,0-1.79h1.62a7.38,7.38,0,0,1,7.48,7.26V32.74A7.39,7.39,0,0,1,30.28,40Z"/><path d="M21.93,7.13H17.7a3,3,0,0,1-3-3V3.32a3,3,0,0,1,3-3h4.23a3,3,0,0,1,3,3v.84A3,3,0,0,1,21.93,7.13ZM17.7,2.05a1.27,1.27,0,0,0-1.27,1.27v.84A1.27,1.27,0,0,0,17.7,5.43h4.23A1.27,1.27,0,0,0,23.2,4.16V3.32a1.27,1.27,0,0,0-1.27-1.27Z"/><path d="M19.14,25a.89.89,0,0,1-1.25-1.25L24,17.64a.89.89,0,0,1,1.25,1.25L19.14,25Z"/><path d="M20.1,32.39a11,11,0,1,1,11-11A11,11,0,0,1,20.1,32.39Zm0-20.32a9.32,9.32,0,1,0,9.31,9.31A9.33,9.33,0,0,0,20.1,12.07Z"/><path d="M19.21,23.76a.84.84,0,0,1,0,1.19h0A.83.83,0,0,1,18,25h0l-3.59-3.59a.84.84,0,0,1,0-1.19h0a.84.84,0,0,1,1.19,0h0l3.59,3.59Z"/></svg>