<svg id="图层_1" data-name="图层 1" xmlns="http://www.w3.org/2000/svg" viewBox="0 0 40 40"><title>icon</title><path d="M20,0A20,20,0,1,0,40,20,20,20,0,0,0,20,0Zm0,36A16,16,0,1,1,36,20,16,16,0,0,1,20,36Z"/><path d="M31.5,19.62a2.26,2.26,0,0,0-.11-.37,2.06,2.06,0,0,0-.44-.66l-7.07-7.07a2,2,0,0,0-2.83,2.82L26.71,20l-2.25,2.24V21.07a2,2,0,0,0-2-2h-12a2,2,0,0,0,0,4h10v4a2.58,2.58,0,0,0,0,.39,1.54,1.54,0,0,1,.05.17,1.72,1.72,0,0,0,.07.21l.1.19.08.15a1.42,1.42,0,0,0,.25.3h0a1.76,1.76,0,0,0,.3.24.75.75,0,0,0,.15.09l.19.1.2.06.17.05a2.1,2.1,0,0,0,.79,0L23,29l.2-.06.19-.1.15-.09a1.76,1.76,0,0,0,.3-.24h0L31,21.41a2,2,0,0,0,.55-1,1.83,1.83,0,0,0,0-.76Z"/></svg>