<svg id="图层_1" data-name="图层 1" xmlns="http://www.w3.org/2000/svg" viewBox="0 0 40 40"><title>icon</title><path d="M14.57,37.54H3.69a1.23,1.23,0,0,1-1.23-1.23V3.69A1.23,1.23,0,0,1,3.69,2.46H30.77A1.23,1.23,0,0,1,32,3.69v9.23a1.23,1.23,0,0,0,2.46,0V3.69A3.69,3.69,0,0,0,30.77,0H3.69A3.69,3.69,0,0,0,0,3.69V36.31A3.69,3.69,0,0,0,3.69,40H14.57a1.23,1.23,0,0,0,0-2.46Z"/><path d="M6.77,27.08a1.23,1.23,0,1,0,0,2.46h3.69a1.23,1.23,0,0,0,0-2.46Z"/><path d="M14.15,19.08a1.23,1.23,0,0,0-1.23-1.23H6.77a1.23,1.23,0,1,0,0,2.46h6.15A1.23,1.23,0,0,0,14.15,19.08Z"/><path d="M27.08,9.85a1.23,1.23,0,0,0-1.23-1.23H6.77a1.23,1.23,0,1,0,0,2.46H25.85A1.23,1.23,0,0,0,27.08,9.85Z"/><path d="M27.69,15.38A12.31,12.31,0,1,0,40,27.69,12.31,12.31,0,0,0,27.69,15.38Zm0,22.16a9.85,9.85,0,1,1,9.85-9.85A9.84,9.84,0,0,1,27.69,37.54Z"/><path d="M34.41,27.13,31,23.75a1.23,1.23,0,0,0-1.73,1.73L31.8,28l-1,1v-.72a1.23,1.23,0,0,0-1.23-1.23H22.15a1.23,1.23,0,1,0,0,2.46h6.16V32a1.24,1.24,0,0,0,.75,1.14,1.36,1.36,0,0,0,.48.09,1.24,1.24,0,0,0,.87-.36l4-4A1.25,1.25,0,0,0,34.41,27.13Z"/></svg>