<svg id="图层_1" data-name="图层 1" xmlns="http://www.w3.org/2000/svg" viewBox="0 0 40 40"><title>icon</title><path d="M16.55,36.55a1.38,1.38,0,0,1,0,2.76H4.27A4.31,4.31,0,0,1,0,35V5A4.31,4.31,0,0,1,4.27.69H28.83A4.31,4.31,0,0,1,33.1,5V12.9a1.38,1.38,0,1,1-2.76,0V5a1.55,1.55,0,0,0-1.51-1.59H4.27A1.55,1.55,0,0,0,2.76,5V35a1.55,1.55,0,0,0,1.51,1.59ZM29,39.31a11,11,0,1,1,11-11,11,11,0,0,1-11,11Zm0-2.76a8.28,8.28,0,1,0-8.28-8.27A8.28,8.28,0,0,0,29,36.55Zm.69-9h3.42a1.38,1.38,0,1,1,0,2.75h-4.8A1.37,1.37,0,0,1,26.9,29V24.83a1.38,1.38,0,0,1,2.76,0ZM9.66,13.1a1.38,1.38,0,0,1,0-2.76H23.45a1.38,1.38,0,0,1,0,2.76Zm0,11a1.38,1.38,0,0,1,0-2.76h2.75a1.38,1.38,0,0,1,0,2.76Z"/></svg>