<?xml version="1.0" standalone="no"?><!DOCTYPE svg PUBLIC "-//W3C//DTD SVG 1.1//EN" "http://www.w3.org/Graphics/SVG/1.1/DTD/svg11.dtd"><svg t="1572688878733" class="icon" viewBox="0 0 1024 1024" version="1.1" xmlns="http://www.w3.org/2000/svg" p-id="2033" xmlns:xlink="http://www.w3.org/1999/xlink" width="200" height="200"><defs><style type="text/css"></style></defs><path d="M51.4 767.8c-19.7-19.7-19.7-51.7 0-71.4l428.2-428.2c19.7-19.7 51.7-19.7 71.4 0 19.7 19.7 19.7 51.7 0 71.4L122.8 767.8c-19.7 19.7-51.7 19.7-71.4 0z" p-id="2034"></path><path d="M479.6 268.2c19.7-19.7 51.7-19.7 71.4 0l428.2 428.2c19.7 19.7 19.7 51.7 0 71.4-19.7 19.7-51.7 19.7-71.4 0L479.6 339.6c-19.7-19.8-19.7-51.7 0-71.4z" p-id="2035"></path></svg>