<?xml version="1.0" standalone="no"?><!DOCTYPE svg PUBLIC "-//W3C//DTD SVG 1.1//EN" "http://www.w3.org/Graphics/SVG/1.1/DTD/svg11.dtd"><svg t="1572689312978" class="icon" viewBox="0 0 1024 1024" version="1.1" xmlns="http://www.w3.org/2000/svg" p-id="5167" xmlns:xlink="http://www.w3.org/1999/xlink" width="200" height="200"><defs><style type="text/css"></style></defs><path d="M462.258471 748.118741c10.823388 0 19.650975 8.827586 19.650974 19.650974 0 10.823388-8.827586 19.650975-19.650974 19.650975h-175.016492c-33.698351 0-60.795202-27.864468-60.795202-61.946627V299.14003C226.446777 265.057871 253.543628 237.193403 287.241979 237.193403h349.956222c33.698351 0 60.795202 27.864468 60.795202 61.946627v112.071964c0 10.823388-8.827586 19.650975-19.650974 19.650975-10.823388 0-19.650975-8.827586-19.650975-19.650975v-112.071964c0-12.665667-9.748726-22.644678-21.493253-22.644678H287.241979c-11.744528 0-21.493253 10.055772-21.493253 22.644678V725.397301c0 12.665667 9.748726 22.644678 21.493253 22.644678h175.016492z m176.85877 39.301949c-86.817391 0-157.207796-70.390405-157.207796-157.207796s70.390405-157.207796 157.207796-157.207797c86.817391 0 157.207796 70.390405 157.207796 157.207797s-70.390405 157.207796-157.207796 157.207796z m0-39.301949c65.093853 0 117.905847-52.811994 117.905847-117.905847s-52.811994-117.905847-117.905847-117.905848S521.211394 565.11904 521.211394 630.212894s52.811994 117.905847 117.905847 117.905847z m9.825488-127.731335H697.763118c10.823388 0 19.650975 8.827586 19.650975 19.650975 0 10.823388-8.827586 19.650975-19.650975 19.650974h-68.471364c-10.823388 0-19.650975-8.827586-19.650974-19.650974V581.085457c0-10.823388 8.827586-19.650975 19.650974-19.650974 10.823388 0 19.650975 8.827586 19.650975 19.650974v39.301949zM364.003598 414.052174c-10.823388 0-19.650975-8.827586-19.650974-19.650975 0-10.823388 8.827586-19.650975 19.650974-19.650974h196.509745c10.823388 0 19.650975 8.827586 19.650975 19.650974 0 10.823388-8.827586 19.650975-19.650975 19.650975h-196.509745z m0 157.207796c-10.823388 0-19.650975-8.827586-19.650974-19.650974 0-10.823388 8.827586-19.650975 19.650974-19.650975h39.301949c10.823388 0 19.650975 8.827586 19.650975 19.650975 0 10.823388-8.827586 19.650975-19.650975 19.650974h-39.301949z m0 0" p-id="5168"></path></svg>